<svg id="icons" enable-background="new 0 0 64 64" height="512" viewBox="0 0 64 64" width="512" xmlns="http://www.w3.org/2000/svg"><g><g><circle cx="53" cy="31.5" fill="#ed5565" r="5"/></g><g><path d="m47 51.5h4.34c-.22.45-.34.96-.34 1.5s.12 1.05.34 1.5h-4.34z" fill="#e6e9ed"/></g><g><circle cx="11" cy="17.5" fill="#f6bb42" r="5"/></g><g><circle cx="53" cy="17.5" fill="#4fc1e9" r="5"/></g><g><circle cx="39" cy="17.5" fill="#48cfad" r="5"/></g><g><circle cx="11" cy="31.5" fill="#5d9cec" r="5"/></g><g><path d="m47 51.5v3h-43.5c-.83 0-1.5-.67-1.5-1.5s.67-1.5 1.5-1.5z" fill="#656d78"/></g><g><path d="m54.5 49.5c1.93 0 8.5 2 8.5 3.5s-6.57 3.5-8.5 3.5c-1.39 0-2.6-.82-3.16-2-.22-.45-.34-.96-.34-1.5s.12-1.05.34-1.5c.56-1.18 1.77-2 3.16-2z" fill="#965353"/></g><g><circle cx="25" cy="31.5" fill="#ac92ec" r="5"/></g><g><circle cx="39" cy="31.5" fill="#ec87c0" r="5"/></g><g><path d="m3 41.5h58c1.1 0 2-.9 2-2v4c0 1.1-.9 2-2 2h-58c-1.1 0-2-.9-2-2v-4c0 1.1.9 2 2 2z" fill="#ccd1d9"/></g><g><circle cx="25" cy="17.5" fill="#a0d468" r="5"/></g><g><path d="m63 13.5v26c0 1.1-.9 2-2 2h-58c-1.1 0-2-.9-2-2v-26-4c0-1.1.9-2 2-2h58c1.1 0 2 .9 2 2zm-5 4c0-2.76-2.24-5-5-5s-5 2.24-5 5 2.24 5 5 5 5-2.24 5-5zm0 14c0-2.76-2.24-5-5-5s-5 2.24-5 5 2.24 5 5 5 5-2.24 5-5zm-14-14c0-2.76-2.24-5-5-5s-5 2.24-5 5 2.24 5 5 5 5-2.24 5-5zm0 14c0-2.76-2.24-5-5-5s-5 2.24-5 5 2.24 5 5 5 5-2.24 5-5zm-14-14c0-2.76-2.24-5-5-5s-5 2.24-5 5 2.24 5 5 5 5-2.24 5-5zm0 14c0-2.76-2.24-5-5-5s-5 2.24-5 5 2.24 5 5 5 5-2.24 5-5zm-14-14c0-2.76-2.24-5-5-5s-5 2.24-5 5 2.24 5 5 5 5-2.24 5-5zm0 14c0-2.76-2.24-5-5-5s-5 2.24-5 5 2.24 5 5 5 5-2.24 5-5z" fill="#e6e9ed"/></g></g></svg>