<svg height="512.00002pt" viewBox="0 0 512.00002 512.00002" width="512.00002pt" xmlns="http://www.w3.org/2000/svg"><path d="m32 0h448c17.671875 0 32 14.328125 32 32v448c0 17.671875-14.328125 32-32 32h-448c-17.671875 0-32-14.328125-32-32v-448c0-17.671875 14.328125-32 32-32zm0 0" fill="#efefef"/><path d="m9.375 502.625c5.996094 6.007812 14.136719 9.382812 22.625 9.375h448c17.671875 0 32-14.328125 32-32v-448c.007812-8.488281-3.367188-16.628906-9.375-22.625zm0 0" fill="#57565c"/><path d="m192 80v112h-32v-48c0-8.835938-7.164062-16-16-16s-16 7.164062-16 16v48h-32v-112c0-8.835938-7.164062-16-16-16s-16 7.164062-16 16v144h160v-144c0-8.835938-7.164062-16-16-16s-16 7.164062-16 16zm0 0" fill="#57565c"/><path d="m448 336c0-26.507812-21.492188-48-48-48h-112v160h112c18.96875.082031 36.195312-11.058594 43.890625-28.398438 7.699219-17.335937 4.414063-37.585937-8.371094-51.601562 7.988281-8.746094 12.4375-20.152344 12.480469-32zm-128-16h80c8.835938 0 16 7.164062 16 16s-7.164062 16-16 16h-80zm80 96h-80v-32h80c8.835938 0 16 7.164062 16 16s-7.164062 16-16 16zm0 0" fill="#fff"/></svg>