<svg id="Layer_1" height="512" viewBox="0 0 512 512" width="512" xmlns="http://www.w3.org/2000/svg" data-name="Layer 1"><path d="m473.02 72.06-63.09-53.68a10 10 0 0 0 -6.48-2.38h-347.99a19.994 19.994 0 0 0 -20 20v440a19.994 19.994 0 0 0 20 20h401.08a19.994 19.994 0 0 0 20-20v-396.32a10.021 10.021 0 0 0 -3.52-7.62z" fill="#6d7486"/><path d="m365.93 17.98v134.91h-259.46v-136.89h259.46z" fill="#4a5160"/><path d="m150.93 58.19h36.33v54.49h-36.33z" fill="#6addc7"/><path d="m106.81 287.26h298.38v208.74h-298.38z" fill="#e5cfa3"/><path d="m65.46 476v-440a19.994 19.994 0 0 1 20-20h-30a19.994 19.994 0 0 0 -20 20v440a19.994 19.994 0 0 0 20 20h30a19.994 19.994 0 0 1 -20-20z" fill="#4a5160"/><path d="m106.81 287.26h30v208.74h-30z" fill="#c6af85"/><path d="m321.464 64.192h-82.314a6 6 0 0 1 0-12h82.314a6 6 0 1 1 0 12z" fill="#f4f8fc"/><g fill="#a38d6a"><path d="m372.757 345.738h-233.514a6 6 0 0 1 0-12h233.514a6 6 0 0 1 0 12z"/><path d="m372.757 397.63h-233.514a6 6 0 0 1 0-12h233.514a6 6 0 0 1 0 12z"/><path d="m372.757 449.522h-233.514a6 6 0 0 1 0-12h233.514a6 6 0 0 1 0 12z"/></g></svg>